<svg version="1.1" viewBox="0.0 0.0 117.98687664041995 130.06561679790028" fill="none" stroke="none" stroke-linecap="square" stroke-miterlimit="10" xmlns:xlink="http://www.w3.org/1999/xlink" xmlns="http://www.w3.org/2000/svg"><clipPath id="p.0"><path d="m0 0l117.98688 0l0 130.06561l-117.98688 0l0 -130.06561z" clip-rule="nonzero"/></clipPath><g clip-path="url(#p.0)"><path fill="#000000" fill-opacity="0.0" d="m0 0l117.98688 0l0 130.06561l-117.98688 0z" fill-rule="evenodd"/><path fill="#0000ff" d="m59.124622 14.183618c8.129986 0 15.456318 2.0855474 21.979 6.256646c6.5413666 4.1522255 11.503464 10.012524 14.886284 17.580893c3.4015121 7.5494995 5.1022644 16.391846 5.1022644 26.527046c0 16.023811 -3.9715424 28.395546 -11.914635 37.11522c-7.9243927 8.719673 -18.026138 13.079506 -30.305222 13.079506c-12.05481 0 -22.08179 -4.3126526 -30.08095 -12.93795c-7.9804688 -8.64418 -11.970705 -20.468575 -11.970705 -35.473206c0 -18.741627 4.1584435 -32.11367 12.475325 -40.116142c8.335573 -8.021339 18.278452 -12.032008 29.828638 -12.032012zm-0.08410263 -14.183619c-17.381351 0 -31.566774 5.850859 -42.556274 17.552582c-10.9895 11.68285 -16.48425 27.857647 -16.48425 48.5244c0 10.927895 2.3548927 21.289581 7.064678 31.085052c4.7097855 9.795471 11.634291 17.52427 20.773518 23.186394c9.139227 5.6621246 19.511969 8.493187 31.118223 8.493187c10.709156 0 20.689411 -2.557396 29.940777 -7.67218c9.251366 -5.1336594 16.400146 -12.683151 21.446342 -22.64849c5.0462036 -9.96534 7.569298 -21.261269 7.569298 -33.88781c0 -12.456669 -2.4016113 -23.592175 -7.2048492 -33.406525c-4.7845383 -9.833218 -11.746429 -17.495956 -20.88565 -22.98822c-9.139229 -5.49226 -19.399834 -8.23839 -30.781815 -8.23839z" fill-rule="evenodd"/><path stroke="#0000ff" stroke-width="1.0" stroke-linejoin="round" stroke-linecap="butt" d="m59.124622 14.183618c8.129986 0 15.456318 2.0855474 21.979 6.256646c6.5413666 4.1522255 11.503464 10.012524 14.886284 17.580893c3.4015121 7.5494995 5.1022644 16.391846 5.1022644 26.527046c0 16.023811 -3.9715424 28.395546 -11.914635 37.11522c-7.9243927 8.719673 -18.026138 13.079506 -30.305222 13.079506c-12.05481 0 -22.08179 -4.3126526 -30.08095 -12.93795c-7.9804688 -8.64418 -11.970705 -20.468575 -11.970705 -35.473206c0 -18.741627 4.1584435 -32.11367 12.475325 -40.116142c8.335573 -8.021339 18.278452 -12.032008 29.828638 -12.032012zm-0.08410263 -14.183619c-17.381351 0 -31.566774 5.850859 -42.556274 17.552582c-10.9895 11.68285 -16.48425 27.857647 -16.48425 48.5244c0 10.927895 2.3548927 21.289581 7.064678 31.085052c4.7097855 9.795471 11.634291 17.52427 20.773518 23.186394c9.139227 5.6621246 19.511969 8.493187 31.118223 8.493187c10.709156 0 20.689411 -2.557396 29.940777 -7.67218c9.251366 -5.1336594 16.400146 -12.683151 21.446342 -22.64849c5.0462036 -9.96534 7.569298 -21.261269 7.569298 -33.88781c0 -12.456669 -2.4016113 -23.592175 -7.2048492 -33.406525c-4.7845383 -9.833218 -11.746429 -17.495956 -20.88565 -22.98822c-9.139229 -5.49226 -19.399834 -8.23839 -30.781815 -8.23839z" fill-rule="evenodd"/></g></svg>