<svg version="1.1" viewBox="0.0 0.0 117.98687664041995 130.06561679790028" fill="none" stroke="none" stroke-linecap="square" stroke-miterlimit="10" xmlns:xlink="http://www.w3.org/1999/xlink" xmlns="http://www.w3.org/2000/svg"><clipPath id="p.0"><path d="m0 0l117.98688 0l0 130.06561l-117.98688 0l0 -130.06561z" clip-rule="nonzero"/></clipPath><g clip-path="url(#p.0)"><path fill="#000000" fill-opacity="0.0" d="m0 0l117.98688 0l0 130.06561l-117.98688 0z" fill-rule="evenodd"/><path fill="#000000" d="m5.8498588 -6.0973485E-7l43.655678 62.26682l-49.505535 67.766174l20.343546 0l32.130577 -45.32528c1.2223587 -1.7739792 3.2596245 -5.0262833 6.1117973 -9.756905c1.9208488 3.1340332 3.7834892 6.03154 5.587925 8.6925125l32.217888 46.38967l20.954727 0l-48.4578 -68.74186l44.965347 -61.29113l-18.422699 0l-25.756844 34.50398c-3.89991 5.1445503 -7.2759476 10.082138 -10.12812 14.812763c-2.0372658 -3.7253647 -5.471512 -9.0473175 -10.302738 -15.965851l-23.224821 -33.35089z" fill-rule="evenodd"/><path stroke="#434343" stroke-width="1.0" stroke-linejoin="round" stroke-linecap="butt" d="m5.8498588 -6.0973485E-7l43.655678 62.26682l-49.505535 67.766174l20.343546 0l32.130577 -45.32528c1.2223587 -1.7739792 3.2596245 -5.0262833 6.1117973 -9.756905c1.9208488 3.1340332 3.7834892 6.03154 5.587925 8.6925125l32.217888 46.38967l20.954727 0l-48.4578 -68.74186l44.965347 -61.29113l-18.422699 0l-25.756844 34.50398c-3.89991 5.1445503 -7.2759476 10.082138 -10.12812 14.812763c-2.0372658 -3.7253647 -5.471512 -9.0473175 -10.302738 -15.965851l-23.224821 -33.35089z" fill-rule="evenodd"/></g></svg>